<?xml version="1.0" encoding="utf-8"?>
<!-- Generator: Adobe Illustrator 20.1.0, SVG Export Plug-In . SVG Version: 6.00 Build 0)  -->
<svg version="1.1" xmlns="http://www.w3.org/2000/svg" xmlns:xlink="http://www.w3.org/1999/xlink" x="0px" y="0px"
	 viewBox="0 0 1000 100" style="enable-background:new 0 0 1000 100;" xml:space="preserve">
<style type="text/css">
	.st0{display:none;}
	.st1{display:inline;fill:#263544;stroke:#000000;stroke-miterlimit:10;}
	.st2{fill:#B53B2D;}
	.st3{fill:#FFFFFF;}
</style>
<g id="fondo" class="st0">
	<rect x="200" class="st1" width="100" height="100"/>
	<rect x="100" class="st1" width="100" height="100"/>
	<rect x="800" y="-0.3" class="st1" width="100" height="100"/>
	<rect class="st1" width="100" height="100"/>
	<rect x="500" y="-0.2" class="st1" width="100" height="100"/>
	<rect x="300" class="st1" width="100" height="100"/>
	<rect x="699.8" y="0.2" class="st1" width="100" height="100"/>
	<rect x="600" y="0.1" class="st1" width="100" height="100"/>
	<rect x="400" y="0.1" class="st1" width="100" height="100"/>
	<rect x="900.2" y="0" class="st1" width="100" height="100"/>
</g>
<g id="Capa_1">
	<path class="st2" d="M413.7,55.7h7.1v3.8h-10.9v-19h3.8V55.7z"/>
	<path class="st2" d="M887.4,50.6L887.4,50.6l-4.9,8.7H878l6.8-11.6l-6.6-7.4h5.1l5.8,7.4"/>
	<path class="st3" d="M832.6,40.1c1.3,0,2.5,0.2,3.7,0.7c1.1,0.5,2.1,1.2,3,2c0.9,0.9,1.6,1.9,2,3c0.5,1.2,0.8,2.4,0.8,3.7
		c0,1.3-0.2,2.6-0.8,3.7c-0.5,1.1-1.1,2.1-2,3c-0.9,0.9-1.9,1.6-3,2c-1.2,0.5-2.4,0.8-3.7,0.8h-3.8v0h-1.5v-19H832.6z M832.6,55.3
		c3.1,0,5.7-2.6,5.7-5.7c0-3.1-2.6-5.7-5.7-5.7h-1.6v11.4H832.6z"/>
	<path class="st2" d="M807.7,55.3h7.1v3.8h-10.9v-19h3.8V55.3z"/>
	<g>
		<path class="st3" d="M831,52.1c0,4.1-3.3,7.4-7.4,7.4c-4.1,0-7.4-3.3-7.4-7.3v-12h3.8v12c0,1,0.4,1.8,1.1,2.5c0.7,0.7,1.6,1,2.5,1
			s1.8-0.4,2.5-1c0.7-0.7,1-1.5,1.1-2.5h0v-12h3.8L831,52.1L831,52.1z"/>
	</g>
	<path class="st2" d="M857.7,50.3l-1.5,1.5v-0.2h-3.8V40h3.8v6.1l5.6-6.1h5.1l-6.6,7.4l6.8,11.6h-4.5L857.7,50.3z"/>
	<path class="st3" d="M853.9,55.5H846l-1.8,3.5H840l9.7-19h1.1l9,19h-4.2L853.9,55.5z M852.1,51.7l-2-4.2l-2.1,4.2H852.1z"/>
	<path class="st2" d="M153.8,50.8L153.8,50.8l-4.9,8.7h-4.5l6.8-11.6l-6.6-7.4h5.1l5.8,7.4"/>
	<path class="st2" d="M253.8,50.8L253.8,50.8l-4.9,8.7h-4.5l6.8-11.6l-6.6-7.4h5.1l5.8,7.4"/>
	<path class="st2" d="M53.8,50.8L53.8,50.8L49,59.5h-4.5l6.8-11.6l-6.6-7.4h5.1l5.8,7.4"/>
	<g>
		<path class="st2" d="M154.2,50.8l-1.5,1.5v-0.2h-3.8V40.5h3.8v6.1l5.6-6.1h5.1l-6.6,7.4l6.8,11.6H159L154.2,50.8z"/>
		<path class="st3" d="M150.4,56h-7.9l-1.8,3.5h-4.3l9.7-19h1.1l9,19H152L150.4,56z M148.6,52.2l-2-4.2l-2.1,4.2H148.6z"/>
	</g>
	<g>
		<path class="st2" d="M254.2,50.8l-1.5,1.5v-0.2h-3.8V40.5h3.8v6.1l5.6-6.1h5.1l-6.6,7.4l6.8,11.6H259L254.2,50.8z"/>
		<path class="st3" d="M250.4,56h-7.9l-1.8,3.5h-4.3l9.7-19h1.1l9,19H252L250.4,56z M248.6,52.2l-2-4.2l-2.1,4.2H248.6z"/>
	</g>
	<g>
		<path class="st3" d="M253.4,40.3c1.3,0,2.5,0.2,3.7,0.7c1.1,0.5,2.1,1.2,3,2c0.9,0.9,1.6,1.9,2,3c0.5,1.2,0.8,2.4,0.8,3.7
			c0,1.3-0.2,2.6-0.8,3.7c-0.5,1.1-1.1,2.1-2,3c-0.9,0.9-1.9,1.6-3,2c-1.2,0.5-2.4,0.8-3.7,0.8h-3.8v0h-1.5v-19H253.4z M253.4,55.6
			c3.1,0,5.7-2.6,5.7-5.7c0-3.1-2.6-5.7-5.7-5.7h-1.6v11.4H253.4z"/>
		<g>
			<path class="st3" d="M251.8,52.3c0,4.1-3.3,7.4-7.4,7.4c-4.1,0-7.4-3.3-7.4-7.3v-12h3.8v12c0,1,0.4,1.8,1.1,2.5
				c0.7,0.7,1.6,1,2.5,1s1.8-0.4,2.5-1c0.7-0.7,1-1.5,1.1-2.5h0v-12h3.8L251.8,52.3L251.8,52.3z"/>
		</g>
	</g>
	<path class="st2" d="M353.8,50.8L353.8,50.8l-4.9,8.7h-4.5l6.8-11.6l-6.6-7.4h5.1l5.8,7.4"/>
	<g>
		<path class="st2" d="M354.2,50.8l-1.5,1.5v-0.2h-3.8V40.5h3.8v6.1l5.6-6.1h5.1l-6.6,7.4l6.8,11.6H359L354.2,50.8z"/>
		<path class="st3" d="M350.4,56h-7.9l-1.8,3.5h-4.3l9.7-19h1.1l9,19H352L350.4,56z M348.6,52.2l-2-4.2l-2.1,4.2H348.6z"/>
	</g>
	<g>
		<path class="st3" d="M353.4,40.3c1.3,0,2.5,0.2,3.7,0.7c1.1,0.5,2.1,1.2,3,2c0.9,0.9,1.6,1.9,2,3c0.5,1.2,0.8,2.4,0.8,3.7
			c0,1.3-0.2,2.6-0.8,3.7c-0.5,1.1-1.1,2.1-2,3c-0.9,0.9-1.9,1.6-3,2c-1.2,0.5-2.4,0.8-3.7,0.8h-3.8v0h-1.5v-19H353.4z M353.4,55.6
			c3.1,0,5.7-2.6,5.7-5.7c0-3.1-2.6-5.7-5.7-5.7h-1.6v11.4H353.4z"/>
		<g>
			<path class="st3" d="M351.8,52.3c0,4.1-3.3,7.4-7.4,7.4c-4.1,0-7.4-3.3-7.4-7.3v-12h3.8v12c0,1,0.4,1.8,1.1,2.5
				c0.7,0.7,1.6,1,2.5,1s1.8-0.4,2.5-1c0.7-0.7,1-1.5,1.1-2.5h0v-12h3.8L351.8,52.3L351.8,52.3z"/>
		</g>
	</g>
	<path class="st2" d="M348.4,55.7h7.1v3.8h-10.9v-19h3.8V55.7z"/>
	<path class="st2" d="M453.8,50.9L453.8,50.9l-4.9,8.7h-4.5l6.8-11.6l-6.6-7.4h5.1l5.8,7.4"/>
	<g>
		<path class="st2" d="M454.2,50.9l-1.5,1.5v-0.2h-3.8V40.6h3.8v6.1l5.6-6.1h5.1l-6.6,7.4l6.8,11.6H459L454.2,50.9z"/>
		<path class="st3" d="M450.4,56.1h-7.9l-1.8,3.5h-4.3l9.7-19h1.1l9,19H452L450.4,56.1z M448.6,52.3l-2-4.2l-2.1,4.2H448.6z"/>
	</g>
	<g>
		<path class="st3" d="M453.4,40.4c1.3,0,2.5,0.2,3.7,0.7c1.1,0.5,2.1,1.2,3,2c0.9,0.9,1.6,1.9,2,3c0.5,1.2,0.8,2.4,0.8,3.7
			c0,1.3-0.2,2.6-0.8,3.7c-0.5,1.1-1.1,2.1-2,3c-0.9,0.9-1.9,1.6-3,2c-1.2,0.5-2.4,0.8-3.7,0.8h-3.8v0h-1.5v-19H453.4z M453.4,55.6
			c3.1,0,5.7-2.6,5.7-5.7c0-3.1-2.6-5.7-5.7-5.7h-1.6v11.4H453.4z"/>
		<g>
			<path class="st3" d="M451.8,52.4c0,4.1-3.3,7.4-7.4,7.4c-4.1,0-7.4-3.3-7.4-7.3v-12h3.8v12c0,1,0.4,1.8,1.1,2.5
				c0.7,0.7,1.6,1,2.5,1s1.8-0.4,2.5-1c0.7-0.7,1-1.5,1.1-2.5h0v-12h3.8L451.8,52.4L451.8,52.4z"/>
		</g>
	</g>
	<path class="st3" d="M532.6,40.2c1.3,0,2.5,0.2,3.7,0.7c1.1,0.5,2.1,1.2,3,2c0.9,0.9,1.6,1.9,2,3c0.5,1.2,0.8,2.4,0.8,3.7
		c0,1.3-0.2,2.6-0.8,3.7c-0.5,1.1-1.1,2.1-2,3c-0.9,0.9-1.9,1.6-3,2c-1.2,0.5-2.4,0.8-3.7,0.8h-3.8v0h-1.5v-19H532.6z M532.6,55.4
		c3.1,0,5.7-2.6,5.7-5.7c0-3.1-2.6-5.7-5.7-5.7h-1.6v11.4H532.6z"/>
	<path class="st2" d="M507.7,55.4h7.1v3.8h-10.9v-19h3.8V55.4z"/>
	<g>
		<path class="st3" d="M531,52.2c0,4.1-3.3,7.4-7.4,7.4c-4.1,0-7.4-3.3-7.4-7.3v-12h3.8v12c0,1,0.4,1.8,1.1,2.5c0.7,0.7,1.6,1,2.5,1
			s1.8-0.4,2.5-1c0.7-0.7,1-1.5,1.1-2.5h0v-12h3.8L531,52.2L531,52.2z"/>
	</g>
	<path class="st2" d="M553.8,50.7L553.8,50.7l-4.9,8.7h-4.5l6.8-11.6l-6.6-7.4h5.1l5.8,7.4"/>
	<g>
		<path class="st2" d="M554.2,50.7l-1.5,1.5V52h-3.8V40.3h3.8v6.1l5.6-6.1h5.1l-6.6,7.4l6.8,11.6H559L554.2,50.7z"/>
		<path class="st3" d="M550.4,55.8h-7.9l-1.8,3.5h-4.3l9.7-19h1.1l9,19H552L550.4,55.8z M548.6,52l-2-4.2l-2.1,4.2H548.6z"/>
	</g>
	<path class="st2" d="M668.4,51L668.4,51l-4.9,8.7H659l6.8-11.6l-6.6-7.4h5.1l5.8,7.4"/>
	<path class="st3" d="M632.6,40.5c1.3,0,2.5,0.2,3.7,0.7c1.1,0.5,2.1,1.2,3,2c0.9,0.9,1.6,1.9,2,3c0.5,1.2,0.8,2.4,0.8,3.7
		c0,1.3-0.2,2.6-0.8,3.7c-0.5,1.1-1.1,2.1-2,3c-0.9,0.9-1.9,1.6-3,2c-1.2,0.5-2.4,0.8-3.7,0.8h-3.8v0h-1.5v-19H632.6z M632.6,55.7
		c3.1,0,5.7-2.6,5.7-5.7c0-3.1-2.6-5.7-5.7-5.7h-1.6v11.4H632.6z"/>
	<path class="st2" d="M607.7,55.7h7.1v3.8h-10.9v-19h3.8V55.7z"/>
	<g>
		<path class="st3" d="M631,52.5c0,4.1-3.3,7.4-7.4,7.4c-4.1,0-7.4-3.3-7.4-7.3v-12h3.8v12c0,1,0.4,1.8,1.1,2.5c0.7,0.7,1.6,1,2.5,1
			s1.8-0.4,2.5-1c0.7-0.7,1-1.5,1.1-2.5h0v-12h3.8L631,52.5L631,52.5z"/>
	</g>
	<path class="st2" d="M657.7,50.8l-1.5,1.5v-0.2h-3.8V40.4h3.8v6.1l5.6-6.1h5.1l-6.6,7.4l6.8,11.6h-4.5L657.7,50.8z"/>
	<path class="st3" d="M653.9,55.9H646l-1.8,3.5H640l9.7-19h1.1l9,19h-4.2L653.9,55.9z M652.1,52.1l-2-4.2l-2.1,4.2H652.1z"/>
	<path class="st2" d="M778.1,51L778.1,51l-4.9,8.7h-4.5l6.8-11.6l-6.6-7.4h5.1l5.8,7.4"/>
	<path class="st3" d="M732.4,40.5c1.3,0,2.5,0.2,3.7,0.7c1.1,0.5,2.1,1.2,3,2c0.9,0.9,1.6,1.9,2,3c0.5,1.2,0.8,2.4,0.8,3.7
		c0,1.3-0.2,2.6-0.8,3.7c-0.5,1.1-1.1,2.1-2,3c-0.9,0.9-1.9,1.6-3,2c-1.2,0.5-2.4,0.8-3.7,0.8h-3.8v0H727v-19H732.4z M732.4,55.8
		c3.1,0,5.7-2.6,5.7-5.7c0-3.1-2.6-5.7-5.7-5.7h-1.6v11.4H732.4z"/>
	<path class="st2" d="M707.4,55.8h7.1v3.8h-10.9v-19h3.8V55.8z"/>
	<g>
		<path class="st3" d="M730.8,52.5c0,4.1-3.3,7.4-7.4,7.4c-4.1,0-7.4-3.3-7.4-7.3v-12h3.8v12c0,1,0.4,1.8,1.1,2.5
			c0.7,0.7,1.6,1,2.5,1s1.8-0.4,2.5-1c0.7-0.7,1-1.5,1.1-2.5h0v-12h3.8L730.8,52.5L730.8,52.5z"/>
	</g>
	<path class="st2" d="M757.5,50.8l-1.5,1.5v-0.2h-3.8V40.5h3.8v6.1l5.6-6.1h5.1l-6.6,7.4l6.8,11.6h-4.5L757.5,50.8z"/>
	<path class="st3" d="M753.7,56h-7.9l-1.8,3.5h-4.3l9.7-19h1.1l9,19h-4.2L753.7,56z M751.9,52.2l-2-4.2l-2.1,4.2H751.9z"/>
	<g>
		<path class="st2" d="M994.6,50.9L994.6,50.9l-4.9,8.7h-4.5l6.8-11.6l-6.6-7.4h5.1l5.8,7.4"/>
		<path class="st3" d="M932.9,40.4c1.3,0,2.5,0.2,3.7,0.7c1.1,0.5,2.1,1.2,3,2c0.9,0.9,1.6,1.9,2,3c0.5,1.2,0.8,2.4,0.8,3.7
			c0,1.3-0.2,2.6-0.8,3.7c-0.5,1.1-1.1,2.1-2,3c-0.9,0.9-1.9,1.6-3,2c-1.2,0.5-2.4,0.8-3.7,0.8H929v0h-1.5v-19H932.9z M932.9,55.6
			c3.1,0,5.7-2.6,5.7-5.7c0-3.1-2.6-5.7-5.7-5.7h-1.6v11.4H932.9z"/>
		<path class="st2" d="M907.9,55.6h7.1v3.8h-10.9v-19h3.8V55.6z"/>
		<g>
			<path class="st3" d="M931.3,52.4c0,4.1-3.3,7.4-7.4,7.4c-4.1,0-7.4-3.3-7.4-7.3v-12h3.8v12c0,1,0.4,1.8,1.1,2.5
				c0.7,0.7,1.6,1,2.5,1s1.8-0.4,2.5-1c0.7-0.7,1-1.5,1.1-2.5h0v-12h3.8L931.3,52.4L931.3,52.4z"/>
		</g>
		<path class="st2" d="M958,50.7l-1.5,1.5V52h-3.8V40.3h3.8v6.1l5.6-6.1h5.1l-6.6,7.4l6.8,11.6h-4.5L958,50.7z"/>
		<path class="st3" d="M954.2,55.8h-7.9l-1.8,3.5h-4.3l9.7-19h1.1l9,19h-4.2L954.2,55.8z M952.4,52l-2-4.2l-2.1,4.2H952.4z"/>
	</g>
</g>
</svg>
